<?xml version="1.0" encoding="UTF-8" standalone="no"?>
<!DOCTYPE svg PUBLIC "-//W3C//DTD SVG 1.1//EN" "http://www.w3.org/Graphics/SVG/1.1/DTD/svg11.dtd">
<svg width="100%" height="100%" viewBox="0 0 2109 2794" version="1.1" xmlns="http://www.w3.org/2000/svg" xmlns:xlink="http://www.w3.org/1999/xlink" xml:space="preserve" xmlns:serif="http://www.serif.com/" style="fill-rule:evenodd;clip-rule:evenodd;stroke-linejoin:round;stroke-miterlimit:2;">
    <rect id="Artboard2" x="0" y="0" width="2108.14" height="2793.81" style="fill:none;"/>
    <g id="Artboard21" serif:id="Artboard2">
        <g id="Layer2">
            <path d="M760.271,488.892L629.229,238.707L725.481,287.653L756.771,163.984L851.287,447.498C851.287,447.498 784.184,479.352 760.271,488.892Z" style="fill:rgb(246,195,204);"/>
            <path d="M732.589,503.392L601.546,253.206C595.237,241.16 597.442,226.416 606.999,216.743C616.557,207.07 631.273,204.687 643.394,210.851L704.78,242.068L726.475,156.319C729.879,142.866 741.747,133.269 755.615,132.755C769.483,132.242 782.028,140.936 786.417,154.101L880.933,437.615C885.928,452.599 878.957,468.955 864.688,475.729C864.688,475.729 796.239,508.188 771.851,517.918C756.975,523.852 740.02,517.58 732.589,503.392ZM774.491,448.69C787.11,443.01 801.184,436.495 812.86,431.043L760.883,275.131L755.776,295.318C753.446,304.528 747.052,312.178 738.402,316.107C729.751,320.035 719.784,319.815 711.315,315.508L702.344,310.946L774.491,448.69Z"/>
            <g>
                <path d="M389.427,1891.17C829.883,1960.93 1282.52,1960.93 1722.98,1891.17C1672.72,2150.55 1606.96,2407.34 1526.53,2660.14C1214.04,2689.66 898.364,2689.66 585.876,2660.14C505.442,2407.34 439.688,2150.55 389.427,1891.17Z" style="fill:rgb(246,195,204);"/>
                <clipPath id="_clip1">
                    <path d="M389.427,1891.17C829.883,1960.93 1282.52,1960.93 1722.98,1891.17C1672.72,2150.55 1606.96,2407.34 1526.53,2660.14C1214.04,2689.66 898.364,2689.66 585.876,2660.14C505.442,2407.34 439.688,2150.55 389.427,1891.17Z"/>
                </clipPath>
                <g clip-path="url(#_clip1)">
                    <path d="M237.03,2106.79C259.622,2118.04 282.521,2128.62 304.794,2140.51C318.951,2148.07 332.505,2156.62 346.524,2164.39C387.487,2187.1 431.204,2206.03 474.347,2224.12C655.254,2300.01 850.536,2347.83 1047.21,2351.2C1165.73,2353.23 1284.57,2347.57 1402.01,2331.14C1486.58,2319.31 1570.98,2301.94 1651.93,2274.45C1700.89,2257.83 1753.92,2238.49 1793.8,2204.62C1806.02,2194.24 1825.22,2178.68 1828.61,2161.65C1801.36,2110.48 1773.45,2058.58 1741.17,2010.36C1709.27,1962.73 1673.53,1916.48 1647.49,1865.26C1468.07,1898.17 1287.14,1927.79 1105.27,1943.31C1030.8,1949.67 955.851,1952.55 881.145,1954.21C723.905,1957.71 566.477,1952.5 409.809,1938.66C347.315,1989.87 290.34,2046.05 237.03,2106.79Z" style="fill-opacity:0.05;"/>
                </g>
                <path d="M394.316,1860.31C831.543,1929.56 1280.86,1929.56 1718.09,1860.31C1728.16,1858.71 1738.37,1862.13 1745.45,1869.46C1752.53,1876.79 1755.6,1887.11 1753.66,1897.12C1703.17,2157.68 1637.11,2415.66 1556.31,2669.62C1552.51,2681.56 1541.94,2690.07 1529.47,2691.25C1215.03,2720.95 897.378,2720.95 582.937,2691.25C570.462,2690.07 559.897,2681.56 556.097,2669.62C475.294,2415.66 409.24,2157.68 358.748,1897.12C356.809,1887.11 359.872,1876.79 366.954,1869.46C374.037,1862.13 384.249,1858.71 394.316,1860.31ZM428.7,1928.79C476.198,2165.43 536.643,2399.84 609.409,2630.93C906.349,2657.73 1206.06,2657.73 1503,2630.93C1575.76,2399.84 1636.21,2165.43 1683.71,1928.79C1268.7,1990.06 843.705,1990.06 428.7,1928.79Z"/>
            </g>
            <path d="M399.813,1499.48C399.813,1499.48 250.6,1483.83 156.293,1631.23C86.674,1740.04 134.557,1967.83 299.52,2063.66C430.577,2139.8 724.504,2203.87 1106.39,2192.7C1577.39,2178.93 1833.26,2142.44 1930.11,1959C2033.68,1762.81 1970.59,1639.49 1861.25,1576.14C1646.53,1451.74 1401.27,1463.21 1401.27,1463.21L399.813,1499.48Z" style="fill:rgb(193,231,218);"/>
            <clipPath id="_clip2">
                <path d="M399.813,1499.48C399.813,1499.48 250.6,1483.83 156.293,1631.23C86.674,1740.04 134.557,1967.83 299.52,2063.66C430.577,2139.8 724.504,2203.87 1106.39,2192.7C1577.39,2178.93 1833.26,2142.44 1930.11,1959C2033.68,1762.81 1970.59,1639.49 1861.25,1576.14C1646.53,1451.74 1401.27,1463.21 1401.27,1463.21L399.813,1499.48Z"/>
            </clipPath>
            <g clip-path="url(#_clip2)">
                <path d="M128.447,1693.44C128.447,1693.44 131.357,1984.45 457.283,2033.92C783.209,2083.39 1055.96,2091.6 1373.95,2054.29C1944.32,1987.36 1953.05,1673.07 1953.05,1673.07L2049.08,1705.08L2191.68,2031.01L1944.32,2266.72L1263.37,2383.12L-19.965,2173.6L44.056,1684.71L128.447,1693.44Z" style="fill-opacity:0.04;"/>
            </g>
            <path d="M400.553,1468.19C400.555,1468.19 400.558,1468.19 400.562,1468.19C404.009,1468.06 1400.05,1431.98 1399.97,1431.99C1407.28,1431.67 1657.48,1421.97 1876.91,1549.1C1938.82,1584.96 1987.09,1638.23 2005.76,1709.87C2023.77,1778.96 2014.29,1866.48 1957.74,1973.59C1905.54,2072.45 1811.6,2133.38 1666.14,2169.79C1529.56,2203.97 1345.66,2216.97 1107.31,2223.93C717.44,2235.34 417.618,2168.41 283.823,2090.68C176.234,2028.18 114.071,1914.3 98.213,1807.44C87.262,1733.64 98.615,1663.39 129.97,1614.38C227.856,1461.4 379.263,1466.64 400.553,1468.19ZM396.552,1530.56C396.552,1530.56 265.755,1518.13 182.616,1648.07C158.275,1686.11 151.534,1740.98 160.036,1798.26C173.356,1888.02 224.85,1984.14 315.217,2036.64C443.537,2111.18 731.566,2172.39 1105.48,2161.46C1338.12,2154.66 1517.66,2142.52 1650.97,2109.16C1775.4,2078.01 1857.82,2028.98 1902.47,1944.41C1949.5,1855.33 1960.26,1783.1 1945.28,1725.64C1930.97,1670.73 1893.03,1630.67 1845.58,1603.18C1638.85,1483.41 1402.73,1494.43 1402.73,1494.43C1402.62,1494.43 1402.51,1494.44 1402.4,1494.44L400.944,1530.71C399.478,1530.77 398.011,1530.72 396.552,1530.56Z"/>
            <path d="M1042.14,1245.4C1042.14,1245.4 1060.51,1222.08 996.529,1176.39C950.477,1143.5 874.438,1098.18 874.438,1098.18C874.438,1098.18 624.255,1114.76 591.077,928.096C570.84,814.243 649.904,503.635 823.197,445.212C1026.14,376.793 1257.65,597.421 1310.97,701.629C1374.99,826.762 1260.04,970.6 1260.04,970.6C1260.04,970.6 1570.18,1073.65 1708.61,1274.39C1777.18,1373.85 1787.13,1525.42 1683.16,1615.49C1576.96,1707.51 1343.3,1760.93 1049.69,1760.93C582.981,1760.93 522.033,1655.91 457.283,1606.14C404.975,1565.93 337.897,1476.13 365.515,1357.75C395.275,1230.18 451.463,1190 532.945,1169.63C661.515,1137.49 965.59,1155.26 965.59,1155.26" style="fill:rgb(193,231,218);"/>
            <clipPath id="_clip3">
                <path d="M1042.14,1245.4C1042.14,1245.4 1060.51,1222.08 996.529,1176.39C950.477,1143.5 874.438,1098.18 874.438,1098.18C874.438,1098.18 624.255,1114.76 591.077,928.096C570.84,814.243 649.904,503.635 823.197,445.212C1026.14,376.793 1257.65,597.421 1310.97,701.629C1374.99,826.762 1260.04,970.6 1260.04,970.6C1260.04,970.6 1570.18,1073.65 1708.61,1274.39C1777.18,1373.85 1787.13,1525.42 1683.16,1615.49C1576.96,1707.51 1343.3,1760.93 1049.69,1760.93C582.981,1760.93 522.033,1655.91 457.283,1606.14C404.975,1565.93 337.897,1476.13 365.515,1357.75C395.275,1230.18 451.463,1190 532.945,1169.63C661.515,1137.49 965.59,1155.26 965.59,1155.26"/>
            </clipPath>
            <g clip-path="url(#_clip3)">
                <path d="M373.72,1327.6C373.72,1327.6 338.234,1488.29 666.31,1607.6C912.022,1696.96 1378.41,1667.46 1513.36,1560.35C1642.62,1457.75 1649.23,1332.92 1635.05,1262.04C1625.38,1213.66 1493.29,1068.29 1493.29,1068.29L1639.78,1016.31L2336.8,1387.27L1842.98,1817.3L531.631,2058.3L193.752,1576.29L373.72,1327.6Z" style="fill-opacity:0.05;"/>
                <path d="M505.64,1181.7C505.64,1181.7 851.395,1199.82 926.217,1217.15C970.957,1227.51 1053.81,1269.13 1053.81,1269.13L1046.72,1210.06L938.031,1125L505.64,1181.7Z" style="fill-opacity:0.05;"/>
                <path d="M1158.61,1024.13C1158.61,1024.13 1193.53,1003.76 1248.82,939.739C1304.11,875.718 1330.3,724.395 1330.3,724.395L1510.72,913.548L1801.73,1099.79L1580.56,1143.44L1158.61,1024.13Z" style="fill-opacity:0.05;"/>
            </g>
            <path d="M761.574,1119.45C753.364,1117.67 744.992,1115.59 736.559,1113.17C659.79,1091.08 579.404,1040.99 560.309,933.565C547.427,861.092 571.216,713.203 633.024,593.316C675.82,510.305 736.834,441.35 813.214,415.6C902.373,385.542 996.706,405.015 1081.37,448.044C1203.71,510.221 1304.94,621.242 1338.79,687.396C1368.32,745.107 1365.6,806.217 1350.78,858.835C1339.84,897.695 1322.35,931.625 1308.08,955.25C1397.43,990.831 1621.12,1092.47 1734.33,1256.65C1811.26,1368.21 1820.25,1538.07 1703.63,1639.11C1593.88,1734.19 1353.08,1792.18 1049.69,1792.18C567.687,1792.18 505.11,1682.32 438.239,1630.92C379.245,1585.57 303.934,1484.16 335.082,1350.64C351.644,1279.65 376.399,1233.38 407.51,1201.62C439.543,1168.92 478.677,1150.99 525.365,1139.32C583.258,1124.84 675.972,1120.16 761.574,1119.45ZM982.15,1128.75C982.565,1129.01 982.974,1129.28 983.375,1129.56C994.467,1136.89 1005.2,1144.18 1014.69,1150.96C1066.42,1187.9 1074.52,1216.91 1075.67,1231.88C1077.37,1254.03 1066.69,1264.74 1066.69,1264.74C1056.03,1278.29 1036.36,1280.62 1022.81,1269.95C1012.2,1261.6 1008.46,1247.72 1012.47,1235.58C1009.28,1231.07 997.559,1215.52 978.367,1201.82C971.294,1196.77 963.5,1191.42 955.383,1185.99C906.234,1183.37 653.772,1171.64 540.524,1199.95C505.73,1208.65 476.031,1220.99 452.158,1245.36C427.364,1270.67 409.147,1308.27 395.948,1364.84C371.859,1468.1 430.706,1546.3 476.328,1581.37C538.956,1629.51 598.272,1729.68 1049.69,1729.68C1333.52,1729.68 1560.03,1680.83 1662.7,1591.87C1754.01,1512.76 1743.11,1379.48 1682.88,1292.13C1549.52,1098.73 1250.18,1000.26 1250.18,1000.26C1240.49,997.033 1232.98,989.272 1230.08,979.472C1227.17,969.673 1229.25,959.074 1235.63,951.09C1235.63,951.09 1273.12,904.04 1290.62,841.893C1301.51,803.238 1304.84,758.259 1283.15,715.863C1253.02,656.967 1161.97,559.117 1053.05,503.761C983.542,468.433 906.382,450.147 833.181,474.825C770.921,495.814 723.46,554.291 688.576,621.956C633.864,728.079 610.442,858.475 621.845,922.627C635.928,1001.86 697.218,1036.81 753.84,1053.1C815.013,1070.7 872.372,1067 872.372,1067C878.694,1066.58 884.994,1068.09 890.437,1071.34C890.437,1071.34 938.75,1100.15 982.15,1128.75ZM1015.67,1228.8C1016.25,1227.87 1016.9,1226.95 1017.59,1226.07C1017.59,1226.07 1016.73,1226.94 1015.67,1228.8Z"/>
            <g id="Layer3">
                <g>
                    <circle cx="715.831" cy="769.575" r="51.599"/>
                    <ellipse cx="714.349" cy="751.385" rx="27.388" ry="26.427" style="fill:white;"/>
                </g>
                <g>
                    <circle cx="1079.28" cy="639.382" r="51.599"/>
                    <ellipse cx="1070.11" cy="623.114" rx="27.388" ry="26.427" style="fill:white;"/>
                </g>
            </g>
            <path d="M483.474,1350.06C472.686,1319.85 500.934,1259.85 564.955,1248.2C628.976,1236.56 696.354,1313.92 745.379,1332.6C867.601,1379.16 1043.27,1412.34 1042.2,1451.91C1039.29,1559.58 813.011,1527.77 713.368,1510.11C641.676,1497.4 514.999,1438.33 483.474,1350.06Z" style="fill:white;fill-opacity:0.3;"/>
            <path d="M227.171,1737.46C221.592,1705.87 261.978,1636.49 327.045,1635.74C392.111,1634.98 453.06,1734.98 498.267,1761.6C610.969,1827.96 805.653,1890.54 793.348,1943.87C775.825,2019.81 552.198,1950.4 456.919,1916.3C388.367,1891.77 243.474,1829.76 227.171,1737.46Z" style="fill:white;fill-opacity:0.3;"/>
        </g>
    </g>
</svg>
